<?xml version="1.0" standalone="no"?>
<!DOCTYPE svg PUBLIC "-//W3C//DTD SVG 20010904//EN"
 "http://www.w3.org/TR/2001/REC-SVG-20010904/DTD/svg10.dtd">
<svg version="1.0" xmlns="http://www.w3.org/2000/svg"
 width="1024.000000pt" height="1024.000000pt" viewBox="0 0 1024.000000 1024.000000"
 preserveAspectRatio="xMidYMid meet">

<g transform="translate(0.000000,1024.000000) scale(0.100000,-0.100000)"
fill="#000000" stroke="none">
<path d="M4825 8703 c-218 -18 -506 -69 -698 -123 -589 -165 -1175 -520 -1594
-964 -861 -911 -1176 -2205 -833 -3416 132 -463 335 -855 649 -1250 109 -137
405 -431 553 -548 790 -627 1803 -889 2798 -726 920 152 1731 648 2301 1411
341 455 567 1028 655 1658 26 184 26 702 0 890 -80 589 -278 1103 -599 1560
-281 399 -683 775 -1079 1011 -442 263 -935 427 -1468 488 -123 15 -555 20
-685 9z m655 -174 c124 -11 336 -48 465 -80 964 -241 1784 -888 2215 -1749
185 -369 300 -776 340 -1205 13 -142 13 -533 0 -666 -138 -1391 -1146 -2566
-2504 -2919 -323 -84 -610 -116 -956 -107 -393 11 -687 61 -1021 175 -1263
432 -2158 1571 -2279 2902 -24 269 -7 649 41 899 179 934 694 1709 1479 2224
500 327 1036 499 1690 541 86 5 402 -4 530 -15z"/>
<path d="M4880 8249 c-259 -20 -609 -97 -856 -189 -777 -289 -1429 -901 -1748
-1642 -279 -646 -333 -1325 -161 -2004 248 -977 947 -1759 1900 -2127 347
-133 708 -197 1120 -197 387 0 700 55 1063 186 583 211 1122 626 1476 1138
363 523 556 1128 556 1739 0 301 -48 635 -134 932 -192 666 -670 1291 -1289
1682 -127 80 -397 215 -542 272 -431 167 -940 244 -1385 210z m635 -189 c450
-67 768 -178 1137 -398 875 -519 1409 -1457 1410 -2477 1 -475 -101 -906 -314
-1328 -217 -430 -541 -803 -941 -1081 -603 -419 -1380 -600 -2112 -490 -1048
157 -1932 852 -2313 1820 -86 219 -138 419 -179 689 -28 189 -25 611 5 805
134 841 594 1559 1283 2003 414 266 874 427 1364 477 146 14 499 4 660 -20z"/>
<path d="M2710 6166 c0 -55 1 -56 28 -56 38 0 112 -39 136 -73 21 -28 21 -43
28 -794 5 -514 5 -779 -2 -804 -20 -74 -89 -129 -160 -129 -29 0 -30 -1 -30
-51 l0 -51 528 5 c485 4 534 5 618 24 192 44 330 125 414 245 214 304 44 672
-352 764 l-78 18 53 16 c233 73 368 258 355 485 -8 119 -37 185 -117 266 -82
82 -179 132 -311 160 -86 18 -143 21 -602 26 l-508 6 0 -57z m878 -91 c105
-32 187 -125 212 -244 19 -89 9 -250 -20 -325 -49 -128 -149 -188 -340 -202
l-90 -7 0 189 c0 104 -3 275 -7 380 -3 106 -3 199 0 208 9 22 172 22 245 1z
m84 -925 c80 -25 135 -71 176 -148 46 -85 65 -178 60 -293 -3 -83 -8 -104 -36
-161 -38 -78 -101 -139 -180 -176 -52 -25 -68 -27 -183 -27 -92 0 -130 4 -142
14 -15 12 -17 53 -17 419 l0 405 129 -6 c83 -5 151 -14 193 -27z"/>
<path d="M6040 6203 c0 -5 -9 -120 -20 -258 -11 -137 -20 -253 -20 -257 0 -5
24 -8 54 -8 l53 0 28 78 c61 172 118 253 213 299 l57 28 281 3 282 3 -295
-518 c-162 -285 -391 -686 -509 -892 -199 -348 -214 -377 -214 -423 l0 -50
755 3 c415 2 755 3 755 3 1 8 50 583 50 589 0 4 -25 7 -55 7 l-54 0 -11 -42
c-34 -132 -85 -232 -155 -304 -66 -67 -136 -102 -228 -114 -39 -5 -179 -10
-311 -10 -189 0 -236 3 -228 13 5 6 204 359 442 782 238 424 461 820 496 882
50 87 64 121 64 153 l0 40 -715 0 c-393 0 -715 -3 -715 -7z"/>
<path d="M5063 5955 c-178 -40 -298 -177 -310 -353 -7 -94 11 -173 65 -287
l38 -80 -69 -34 c-85 -43 -193 -142 -231 -211 -78 -142 -75 -333 7 -472 31
-53 106 -125 167 -161 172 -100 449 -64 610 81 l55 49 60 -55 c141 -130 307
-148 398 -41 18 21 38 54 44 72 l10 34 -49 11 c-62 15 -138 64 -207 135 l-54
56 84 207 c87 217 122 274 170 274 38 0 51 14 47 51 l-3 34 -207 3 -208 2 0
-39 c0 -38 2 -41 39 -51 70 -19 112 -94 97 -174 -4 -19 -20 -68 -37 -108 -17
-40 -35 -84 -40 -97 -9 -23 -17 -15 -120 125 -61 82 -142 192 -179 246 l-68
96 64 33 c144 74 229 169 260 288 50 199 -80 360 -304 376 -40 3 -92 -1 -129
-10z m148 -118 c19 -12 45 -44 59 -72 21 -42 25 -64 25 -136 0 -75 -4 -92 -30
-144 -30 -58 -116 -139 -140 -132 -15 5 -101 172 -125 241 -26 78 -25 131 3
186 38 78 137 105 208 57z m-131 -927 c90 -124 185 -252 211 -286 l48 -61 -22
-21 c-12 -11 -48 -33 -80 -48 -53 -24 -68 -26 -145 -22 -105 5 -166 33 -231
103 -104 113 -141 305 -82 438 28 65 110 153 126 135 7 -7 85 -114 175 -238z"/>
</g>
</svg>
